<mxfile host="Electron" modified="2024-02-22T05:18:08.954Z" agent="Mozilla/5.0 (Windows NT 10.0; Win64; x64) AppleWebKit/537.36 (KHTML, like Gecko) draw.io/23.1.5 Chrome/120.0.6099.109 Electron/28.1.0 Safari/537.36" etag="hKkVByj3slvZil3aty7p" version="23.1.5" type="device">
  <diagram name="Page-1" id="eVuddyxIibIs43AgTQzJ">
    <mxGraphModel dx="782" dy="584" grid="1" gridSize="10" guides="1" tooltips="1" connect="1" arrows="1" fold="1" page="1" pageScale="1" pageWidth="850" pageHeight="1100" math="0" shadow="0">
      <root>
        <mxCell id="0" />
        <mxCell id="1" parent="0" />
        <mxCell id="SqFK0BoNPx7FMAijaVaJ-11" value="Client" style="shape=rect;html=1;verticalAlign=top;fontStyle=1;whiteSpace=wrap;align=center;fillColor=#f5f5f5;fontColor=#333333;strokeColor=#666666;" vertex="1" parent="1">
          <mxGeometry x="60" y="430" width="640" height="470" as="geometry" />
        </mxCell>
        <mxCell id="SqFK0BoNPx7FMAijaVaJ-20" value="Controller" style="shape=rect;html=1;verticalAlign=top;fontStyle=1;whiteSpace=wrap;align=center;fillColor=#f5f5f5;fontColor=#333333;strokeColor=#666666;" vertex="1" parent="1">
          <mxGeometry x="90" y="480" width="240" height="160" as="geometry" />
        </mxCell>
        <mxCell id="SqFK0BoNPx7FMAijaVaJ-19" value="Model" style="shape=rect;html=1;verticalAlign=top;fontStyle=1;whiteSpace=wrap;align=center;fillColor=#f5f5f5;fontColor=#333333;strokeColor=#666666;" vertex="1" parent="1">
          <mxGeometry x="430" y="480" width="240" height="160" as="geometry" />
        </mxCell>
        <mxCell id="SqFK0BoNPx7FMAijaVaJ-18" value="View" style="shape=rect;html=1;verticalAlign=top;fontStyle=1;whiteSpace=wrap;align=center;fillColor=#f5f5f5;fontColor=#333333;strokeColor=#666666;" vertex="1" parent="1">
          <mxGeometry x="440" y="660" width="230" height="170" as="geometry" />
        </mxCell>
        <mxCell id="SqFK0BoNPx7FMAijaVaJ-6" value="Server" style="shape=rect;html=1;verticalAlign=top;fontStyle=1;whiteSpace=wrap;align=center;fillColor=#f5f5f5;fontColor=#333333;strokeColor=#666666;" vertex="1" parent="1">
          <mxGeometry x="60" y="70" width="640" height="270" as="geometry" />
        </mxCell>
        <mxCell id="SqFK0BoNPx7FMAijaVaJ-4" value="«Component»&lt;br&gt;&lt;b&gt;Database Manager&lt;/b&gt;" style="html=1;dropTarget=0;whiteSpace=wrap;" vertex="1" parent="1">
          <mxGeometry x="480" y="110" width="180" height="90" as="geometry" />
        </mxCell>
        <mxCell id="SqFK0BoNPx7FMAijaVaJ-5" value="" style="shape=module;jettyWidth=8;jettyHeight=4;" vertex="1" parent="SqFK0BoNPx7FMAijaVaJ-4">
          <mxGeometry x="1" width="20" height="20" relative="1" as="geometry">
            <mxPoint x="-27" y="7" as="offset" />
          </mxGeometry>
        </mxCell>
        <mxCell id="SqFK0BoNPx7FMAijaVaJ-7" value="«Component»&lt;br&gt;&lt;b&gt;Router&lt;/b&gt;" style="html=1;dropTarget=0;whiteSpace=wrap;" vertex="1" parent="1">
          <mxGeometry x="90" y="110" width="180" height="90" as="geometry" />
        </mxCell>
        <mxCell id="SqFK0BoNPx7FMAijaVaJ-8" value="" style="shape=module;jettyWidth=8;jettyHeight=4;" vertex="1" parent="SqFK0BoNPx7FMAijaVaJ-7">
          <mxGeometry x="1" width="20" height="20" relative="1" as="geometry">
            <mxPoint x="-27" y="7" as="offset" />
          </mxGeometry>
        </mxCell>
        <mxCell id="SqFK0BoNPx7FMAijaVaJ-9" value="«Component»&lt;br&gt;&lt;b&gt;Private Resource &lt;br&gt;Manager&lt;/b&gt;" style="html=1;dropTarget=0;whiteSpace=wrap;" vertex="1" parent="1">
          <mxGeometry x="480" y="220" width="180" height="90" as="geometry" />
        </mxCell>
        <mxCell id="SqFK0BoNPx7FMAijaVaJ-10" value="" style="shape=module;jettyWidth=8;jettyHeight=4;" vertex="1" parent="SqFK0BoNPx7FMAijaVaJ-9">
          <mxGeometry x="1" width="20" height="20" relative="1" as="geometry">
            <mxPoint x="-27" y="7" as="offset" />
          </mxGeometry>
        </mxCell>
        <mxCell id="SqFK0BoNPx7FMAijaVaJ-12" value="«Component»&lt;br&gt;&lt;b&gt;React DOM Model&lt;br&gt;&lt;/b&gt;" style="html=1;dropTarget=0;whiteSpace=wrap;" vertex="1" parent="1">
          <mxGeometry x="460" y="520" width="180" height="90" as="geometry" />
        </mxCell>
        <mxCell id="SqFK0BoNPx7FMAijaVaJ-13" value="" style="shape=module;jettyWidth=8;jettyHeight=4;" vertex="1" parent="SqFK0BoNPx7FMAijaVaJ-12">
          <mxGeometry x="1" width="20" height="20" relative="1" as="geometry">
            <mxPoint x="-27" y="7" as="offset" />
          </mxGeometry>
        </mxCell>
        <mxCell id="SqFK0BoNPx7FMAijaVaJ-14" value="«Component»&lt;br&gt;&lt;b&gt;React Controller&lt;br&gt;&lt;/b&gt;" style="html=1;dropTarget=0;whiteSpace=wrap;" vertex="1" parent="1">
          <mxGeometry x="120" y="520" width="180" height="90" as="geometry" />
        </mxCell>
        <mxCell id="SqFK0BoNPx7FMAijaVaJ-15" value="" style="shape=module;jettyWidth=8;jettyHeight=4;" vertex="1" parent="SqFK0BoNPx7FMAijaVaJ-14">
          <mxGeometry x="1" width="20" height="20" relative="1" as="geometry">
            <mxPoint x="-27" y="7" as="offset" />
          </mxGeometry>
        </mxCell>
        <mxCell id="SqFK0BoNPx7FMAijaVaJ-16" value="«Component»&lt;br&gt;&lt;b&gt;HTML DOM Model&lt;br&gt;&lt;/b&gt;" style="html=1;dropTarget=0;whiteSpace=wrap;" vertex="1" parent="1">
          <mxGeometry x="465" y="710" width="180" height="90" as="geometry" />
        </mxCell>
        <mxCell id="SqFK0BoNPx7FMAijaVaJ-17" value="" style="shape=module;jettyWidth=8;jettyHeight=4;" vertex="1" parent="SqFK0BoNPx7FMAijaVaJ-16">
          <mxGeometry x="1" width="20" height="20" relative="1" as="geometry">
            <mxPoint x="-27" y="7" as="offset" />
          </mxGeometry>
        </mxCell>
        <mxCell id="SqFK0BoNPx7FMAijaVaJ-21" value="" style="edgeStyle=none;html=1;endArrow=classic;verticalAlign=bottom;rounded=0;entryX=0.25;entryY=1;entryDx=0;entryDy=0;exitX=0.25;exitY=0;exitDx=0;exitDy=0;endFill=1;dashed=1;" edge="1" parent="1" source="SqFK0BoNPx7FMAijaVaJ-14" target="SqFK0BoNPx7FMAijaVaJ-7">
          <mxGeometry width="160" relative="1" as="geometry">
            <mxPoint x="150" y="570" as="sourcePoint" />
            <mxPoint x="120" y="200" as="targetPoint" />
            <Array as="points">
              <mxPoint x="165" y="360" />
              <mxPoint x="135" y="360" />
            </Array>
          </mxGeometry>
        </mxCell>
        <mxCell id="SqFK0BoNPx7FMAijaVaJ-22" value="Http Request" style="edgeLabel;html=1;align=center;verticalAlign=middle;resizable=0;points=[];labelBackgroundColor=#f5f5f5;" vertex="1" connectable="0" parent="SqFK0BoNPx7FMAijaVaJ-21">
          <mxGeometry x="0.191" relative="1" as="geometry">
            <mxPoint x="-15" y="28" as="offset" />
          </mxGeometry>
        </mxCell>
        <mxCell id="SqFK0BoNPx7FMAijaVaJ-23" value="" style="edgeStyle=none;html=1;endArrow=classic;verticalAlign=bottom;rounded=0;entryX=0.5;entryY=1;entryDx=0;entryDy=0;exitX=0.5;exitY=0;exitDx=0;exitDy=0;startArrow=none;startFill=0;endFill=1;dashed=1;" edge="1" parent="1" source="SqFK0BoNPx7FMAijaVaJ-14" target="SqFK0BoNPx7FMAijaVaJ-7">
          <mxGeometry width="160" relative="1" as="geometry">
            <mxPoint x="211.5" y="571" as="sourcePoint" />
            <mxPoint x="208.5" y="200" as="targetPoint" />
            <Array as="points">
              <mxPoint x="210" y="320" />
              <mxPoint x="180" y="320" />
            </Array>
          </mxGeometry>
        </mxCell>
        <mxCell id="SqFK0BoNPx7FMAijaVaJ-24" value="Http Response" style="edgeLabel;html=1;align=center;verticalAlign=middle;resizable=0;points=[];labelBackgroundColor=#f5f5f5;" vertex="1" connectable="0" parent="SqFK0BoNPx7FMAijaVaJ-23">
          <mxGeometry x="0.191" relative="1" as="geometry">
            <mxPoint x="21" y="51" as="offset" />
          </mxGeometry>
        </mxCell>
        <mxCell id="SqFK0BoNPx7FMAijaVaJ-25" value="" style="edgeStyle=none;html=1;endArrow=classic;verticalAlign=bottom;rounded=0;entryX=0;entryY=0.5;entryDx=0;entryDy=0;exitX=1;exitY=0.5;exitDx=0;exitDy=0;startArrow=none;startFill=0;endFill=1;dashed=1;" edge="1" parent="1">
          <mxGeometry width="160" relative="1" as="geometry">
            <mxPoint x="300" y="580" as="sourcePoint" />
            <mxPoint x="460" y="580" as="targetPoint" />
          </mxGeometry>
        </mxCell>
        <mxCell id="SqFK0BoNPx7FMAijaVaJ-26" value="Modifies" style="edgeLabel;html=1;align=center;verticalAlign=middle;resizable=0;points=[];labelBackgroundColor=#f5f5f5;" vertex="1" connectable="0" parent="SqFK0BoNPx7FMAijaVaJ-25">
          <mxGeometry x="0.191" relative="1" as="geometry">
            <mxPoint x="-15" y="-15" as="offset" />
          </mxGeometry>
        </mxCell>
        <mxCell id="SqFK0BoNPx7FMAijaVaJ-27" value="" style="edgeStyle=none;html=1;endArrow=classic;verticalAlign=bottom;rounded=0;entryX=0;entryY=0.5;entryDx=0;entryDy=0;exitX=0.75;exitY=1;exitDx=0;exitDy=0;startArrow=none;startFill=0;endFill=1;dashed=1;" edge="1" parent="1" source="SqFK0BoNPx7FMAijaVaJ-14">
          <mxGeometry width="160" relative="1" as="geometry">
            <mxPoint x="305" y="730" as="sourcePoint" />
            <mxPoint x="465" y="730" as="targetPoint" />
            <Array as="points">
              <mxPoint x="255" y="730" />
            </Array>
          </mxGeometry>
        </mxCell>
        <mxCell id="SqFK0BoNPx7FMAijaVaJ-28" value="Updates" style="edgeLabel;html=1;align=center;verticalAlign=middle;resizable=0;points=[];labelBackgroundColor=#f5f5f5;" vertex="1" connectable="0" parent="SqFK0BoNPx7FMAijaVaJ-27">
          <mxGeometry x="0.191" relative="1" as="geometry">
            <mxPoint x="-15" y="-15" as="offset" />
          </mxGeometry>
        </mxCell>
        <mxCell id="SqFK0BoNPx7FMAijaVaJ-29" value="" style="edgeStyle=none;html=1;endArrow=classic;verticalAlign=bottom;rounded=0;entryX=1;entryY=0.25;entryDx=0;entryDy=0;exitX=0;exitY=0.25;exitDx=0;exitDy=0;startArrow=none;startFill=0;endFill=1;dashed=1;" edge="1" parent="1" source="SqFK0BoNPx7FMAijaVaJ-12" target="SqFK0BoNPx7FMAijaVaJ-14">
          <mxGeometry width="160" relative="1" as="geometry">
            <mxPoint x="300" y="549" as="sourcePoint" />
            <mxPoint x="460" y="549" as="targetPoint" />
          </mxGeometry>
        </mxCell>
        <mxCell id="SqFK0BoNPx7FMAijaVaJ-30" value="Reads" style="edgeLabel;html=1;align=center;verticalAlign=middle;resizable=0;points=[];labelBackgroundColor=#f5f5f5;" vertex="1" connectable="0" parent="SqFK0BoNPx7FMAijaVaJ-29">
          <mxGeometry x="0.191" relative="1" as="geometry">
            <mxPoint x="15" y="-15" as="offset" />
          </mxGeometry>
        </mxCell>
        <mxCell id="SqFK0BoNPx7FMAijaVaJ-31" value="" style="edgeStyle=none;html=1;endArrow=none;verticalAlign=bottom;rounded=0;entryX=0;entryY=0.5;entryDx=0;entryDy=0;exitX=0.75;exitY=1;exitDx=0;exitDy=0;startArrow=classic;startFill=1;endFill=0;dashed=1;" edge="1" parent="1" target="SqFK0BoNPx7FMAijaVaJ-16">
          <mxGeometry width="160" relative="1" as="geometry">
            <mxPoint x="200" y="610" as="sourcePoint" />
            <mxPoint x="410" y="730" as="targetPoint" />
            <Array as="points">
              <mxPoint x="200" y="755" />
            </Array>
          </mxGeometry>
        </mxCell>
        <mxCell id="SqFK0BoNPx7FMAijaVaJ-32" value="Events" style="edgeLabel;html=1;align=center;verticalAlign=middle;resizable=0;points=[];labelBackgroundColor=#f5f5f5;" vertex="1" connectable="0" parent="SqFK0BoNPx7FMAijaVaJ-31">
          <mxGeometry x="0.191" relative="1" as="geometry">
            <mxPoint x="-99" y="-55" as="offset" />
          </mxGeometry>
        </mxCell>
        <mxCell id="SqFK0BoNPx7FMAijaVaJ-33" value="" style="edgeStyle=none;html=1;endArrow=classic;verticalAlign=bottom;rounded=0;entryX=0;entryY=0.5;entryDx=0;entryDy=0;exitX=1;exitY=0.5;exitDx=0;exitDy=0;startArrow=none;startFill=0;endFill=1;dashed=1;" edge="1" parent="1">
          <mxGeometry width="160" relative="1" as="geometry">
            <mxPoint x="270" y="140" as="sourcePoint" />
            <mxPoint x="480" y="140" as="targetPoint" />
          </mxGeometry>
        </mxCell>
        <mxCell id="SqFK0BoNPx7FMAijaVaJ-34" value="SQL Queries" style="edgeLabel;html=1;align=center;verticalAlign=middle;resizable=0;points=[];labelBackgroundColor=#f5f5f5;" vertex="1" connectable="0" parent="SqFK0BoNPx7FMAijaVaJ-33">
          <mxGeometry x="0.191" relative="1" as="geometry">
            <mxPoint x="-8" y="-15" as="offset" />
          </mxGeometry>
        </mxCell>
        <mxCell id="SqFK0BoNPx7FMAijaVaJ-39" value="" style="edgeStyle=none;html=1;endArrow=classic;verticalAlign=bottom;rounded=0;entryX=0;entryY=0.25;entryDx=0;entryDy=0;startArrow=none;startFill=0;endFill=1;exitX=0.919;exitY=0.996;exitDx=0;exitDy=0;exitPerimeter=0;dashed=1;" edge="1" parent="1" source="SqFK0BoNPx7FMAijaVaJ-7" target="SqFK0BoNPx7FMAijaVaJ-9">
          <mxGeometry width="160" relative="1" as="geometry">
            <mxPoint x="230" y="200" as="sourcePoint" />
            <mxPoint x="480" y="260" as="targetPoint" />
            <Array as="points">
              <mxPoint x="255" y="243" />
            </Array>
          </mxGeometry>
        </mxCell>
        <mxCell id="SqFK0BoNPx7FMAijaVaJ-40" value="Put Resource" style="edgeLabel;html=1;align=center;verticalAlign=middle;resizable=0;points=[];labelBackgroundColor=#f5f5f5;" vertex="1" connectable="0" parent="SqFK0BoNPx7FMAijaVaJ-39">
          <mxGeometry x="0.191" relative="1" as="geometry">
            <mxPoint x="-8" y="-15" as="offset" />
          </mxGeometry>
        </mxCell>
        <mxCell id="SqFK0BoNPx7FMAijaVaJ-41" value="" style="edgeStyle=none;html=1;endArrow=none;verticalAlign=bottom;rounded=0;entryX=0;entryY=0.75;entryDx=0;entryDy=0;exitX=0.75;exitY=1;exitDx=0;exitDy=0;startArrow=classic;startFill=1;endFill=0;dashed=1;" edge="1" parent="1" source="SqFK0BoNPx7FMAijaVaJ-7" target="SqFK0BoNPx7FMAijaVaJ-9">
          <mxGeometry width="160" relative="1" as="geometry">
            <mxPoint x="235" y="210" as="sourcePoint" />
            <mxPoint x="490" y="275" as="targetPoint" />
            <Array as="points">
              <mxPoint x="225" y="288" />
            </Array>
          </mxGeometry>
        </mxCell>
        <mxCell id="SqFK0BoNPx7FMAijaVaJ-42" value="Fetch Resource" style="edgeLabel;html=1;align=center;verticalAlign=middle;resizable=0;points=[];labelBackgroundColor=#f5f5f5;" vertex="1" connectable="0" parent="SqFK0BoNPx7FMAijaVaJ-41">
          <mxGeometry x="0.191" relative="1" as="geometry">
            <mxPoint x="-8" y="-15" as="offset" />
          </mxGeometry>
        </mxCell>
        <mxCell id="SqFK0BoNPx7FMAijaVaJ-43" value="" style="edgeStyle=none;html=1;endArrow=none;verticalAlign=bottom;rounded=0;entryX=0;entryY=0.5;entryDx=0;entryDy=0;exitX=1;exitY=0.5;exitDx=0;exitDy=0;startArrow=classic;startFill=1;endFill=0;dashed=1;" edge="1" parent="1">
          <mxGeometry width="160" relative="1" as="geometry">
            <mxPoint x="270" y="180" as="sourcePoint" />
            <mxPoint x="480" y="180" as="targetPoint" />
          </mxGeometry>
        </mxCell>
        <mxCell id="SqFK0BoNPx7FMAijaVaJ-44" value="Query Results" style="edgeLabel;html=1;align=center;verticalAlign=middle;resizable=0;points=[];labelBackgroundColor=#f5f5f5;" vertex="1" connectable="0" parent="SqFK0BoNPx7FMAijaVaJ-43">
          <mxGeometry x="0.191" relative="1" as="geometry">
            <mxPoint x="-8" y="-15" as="offset" />
          </mxGeometry>
        </mxCell>
      </root>
    </mxGraphModel>
  </diagram>
</mxfile>
